<svg xmlns="http://www.w3.org/2000/svg" xmlns:xlink="http://www.w3.org/1999/xlink" width="204.994" height="57.962" viewBox="0 0 204.994 57.962">
  <defs>
    <clipPath id="clip-path">
      <path id="Path_219" data-name="Path 219" d="M347.938-446.233H552.931v-57.962H347.938Z" transform="translate(0 0)"/>
    </clipPath>
  </defs>
  <g id="Expedia-Logo.wine" transform="translate(-347.938 504.195)" clip-path="url(#clip-path)">
    <path id="Path_215" data-name="Path 215" d="M422.72-465.986h-6.358a.071.071,0,0,1-.063-.026l-5.478-6.691-5.484,6.691c-.011.02-.031.026-.06.026h-5.091a.088.088,0,0,1-.077-.048.083.083,0,0,1,.011-.08l8.069-9.911-7.975-9.817a.1.1,0,0,1-.014-.094.12.12,0,0,1,.071-.046h6.361a.071.071,0,0,1,.06.04l4.806,5.956,4.891-5.959a.068.068,0,0,1,.06-.037h5.185a.106.106,0,0,1,.074.046.094.094,0,0,1-.011.094l-7.57,9.091,8.647,10.637a.063.063,0,0,1,.014.08.074.074,0,0,1-.068.049m34.41-16.47c-2.816,0-4.738,1.708-5.287,4.678h9.578v-.191a4.346,4.346,0,0,0-4.291-4.487m9.23,7.724a.084.084,0,0,1-.068.037H451.741c.3,3.388,2.5,5.318,6.064,5.318,2.192,0,4.521-.749,7.813-2.5a.082.082,0,0,1,.12.08l-.006,4.476a.077.077,0,0,1-.048.068,23.825,23.825,0,0,1-8.553,2.17,10.475,10.475,0,0,1-10.808-10.856,10.475,10.475,0,0,1,10.808-10.856c5.717,0,9.39,3.852,9.39,9.151,0,.857-.148,2.85-.159,2.913m29.561-15.377a3.216,3.216,0,0,1-3.237-3.189,3.259,3.259,0,0,1,3.237-3.277,3.261,3.261,0,0,1,3.24,3.277,3.218,3.218,0,0,1-3.24,3.189m-2.614,24.124a.076.076,0,0,1-.083-.083V-485.9a.083.083,0,0,1,.063-.08h5.256a.077.077,0,0,1,.066.08v19.83a.076.076,0,0,1-.077.083Zm-60.975-2.987a11.53,11.53,0,0,1-3.035-.433l.011-12.721a11.569,11.569,0,0,1,3.568-.612c3.644,0,6.09,2.688,6.09,6.679,0,4.3-2.605,7.087-6.634,7.087m1.429-17.82a13.869,13.869,0,0,0-4.553.811h-5.23a.077.077,0,0,0-.074.083v32.52a12.062,12.062,0,0,0,5.4-2.118l0-9.891a24.27,24.27,0,0,0,3.382.3c7.163,0,11.8-4.293,11.8-10.942,0-6.338-4.41-10.768-10.717-10.768m49.975,16.173a9.625,9.625,0,0,1-4.476,1.267c-3.243,0-5.187-2.292-5.187-6.13,0-4.442,2.483-7.314,6.321-7.314a7.9,7.9,0,0,1,3.343.826Zm0-25.86V-486.1a15.145,15.145,0,0,0-4.251-.641A10.7,10.7,0,0,0,468.548-475.8c0,6.213,4.151,10.717,9.862,10.717a12.661,12.661,0,0,0,6.007-1.617l0,1.791a11.976,11.976,0,0,0,4.718-2V-498.6a11.626,11.626,0,0,0-5.4,2.124m33.081,25.821a8.476,8.476,0,0,1-4.154,1.352c-3.474,0-5.555-2.283-5.555-6.136,0-4.376,2.451-7.311,6.1-7.311a8.08,8.08,0,0,1,3.613,1.142Zm5.4-15.562a.224.224,0,0,0-.225-.219l-4.248.006a.235.235,0,0,0-.231.228v.723h-.108a12.938,12.938,0,0,0-5.281-1.256c-5.876,0-10.483,4.871-10.483,11.115,0,6.312,4.123,10.543,10.258,10.543a6.753,6.753,0,0,0,5.717-2.38v2.551a12.236,12.236,0,0,0,4.6-2.01ZM385.646-470.947l13.194-.006a11.922,11.922,0,0,1-1.842,4.96H383.272a3.264,3.264,0,0,1-3.226-2.947.381.381,0,0,1-.02-.071v-26.02a.251.251,0,0,1,.02-.065,3.27,3.27,0,0,1,3.226-2.955c.054,0,.105.006.151.006l15.389,0a12.124,12.124,0,0,1-1.842,5H385.646v7.084h11.209a.076.076,0,0,1,.08.077v4.914a.079.079,0,0,1-.08.077H385.646v9.948Zm-16.516,5.367a2.11,2.11,0,0,1-2.11-2.266,2.128,2.128,0,0,1,2.11-2.266,2.124,2.124,0,0,1,2.1,2.266,2.122,2.122,0,0,1-2.1,2.266m0-4.789a2.443,2.443,0,0,0-2.477,2.523,2.42,2.42,0,0,0,2.477,2.514,2.439,2.439,0,0,0,2.466-2.514,2.444,2.444,0,0,0-2.466-2.523" transform="translate(23.914 7.145)" fill="#ccc"/>
    <path id="Path_216" data-name="Path 216" d="M367.737-474.3v-.92h.621c.313,0,.683.048.683.43,0,.453-.342.49-.732.49Zm1.762-.43c0-.6-.37-.857-1.088-.857h-1.13v2.981h.493v-1.276h.456l.772,1.276h.555l-.837-1.31a.763.763,0,0,0,.78-.814m156.257-14.2a2.114,2.114,0,0,1-2.115-2.266,2.131,2.131,0,0,1,2.115-2.266,2.125,2.125,0,0,1,2.1,2.266,2.124,2.124,0,0,1-2.1,2.266m0-4.789a2.443,2.443,0,0,0-2.477,2.522,2.418,2.418,0,0,0,2.477,2.514,2.437,2.437,0,0,0,2.46-2.514,2.441,2.441,0,0,0-2.46-2.522" transform="translate(24.716 13.392)" fill="#82b4b7"/>
    <path id="Path_217" data-name="Path 217" d="M549.708-478.02v-.917h.621c.313,0,.683.046.683.427,0,.456-.344.49-.729.49Zm1.762-.43c0-.6-.37-.857-1.088-.857h-1.13v2.981h.487V-477.6h.461l.772,1.273h.552l-.834-1.31a.763.763,0,0,0,.78-.814m-175.614-7.493-.957-2.708-8.114-10.845,1.458-.362,13.991,12.095,8.234-2.355a11.786,11.786,0,0,1,2.9-.3A23.676,23.676,0,0,0,379.8-502.8a23.747,23.747,0,0,0-30.345,14.418,23.648,23.648,0,0,0-1.113,11.522l19.725-6.853Zm18.382-2.335a12.683,12.683,0,0,1-2.839,1.423l-8.251,2.355-5.506,17.675-1.429.464,1.162-13.5-.649-2.8-7.733,2.207-20.437,4.812a23.736,23.736,0,0,0,15.3,17.61A23.747,23.747,0,0,0,394.2-472.448a23.672,23.672,0,0,0,.037-15.83" transform="translate(0.168 0.01)" fill="#ccc"/>
    <path id="Path_218" data-name="Path 218" d="M376.575-485.09l.652,2.8-1.164,13.5,1.429-.464L383-486.926l8.251-2.355a12.932,12.932,0,0,0,2.839-1.424q-.381-1.089-.865-2.138a12.059,12.059,0,0,0-2.9.3l-8.234,2.36-13.994-12.1-1.455.365,8.112,10.845.96,2.7-7.8,2.232-19.722,6.847c.063.41.134.817.216,1.221l20.44-4.812Z" transform="translate(0.321 2.439)" fill="#fff"/>
  </g>
</svg>
