<svg xmlns="http://www.w3.org/2000/svg" width="65" height="66" viewBox="0 0 65 66">
  <g id="Group_612" data-name="Group 612" transform="translate(-995 -2296)">
    <rect id="Rectangle_21" data-name="Rectangle 21" width="65" height="66" rx="13" transform="translate(995 2296)" fill="#f0bb1f"/>
    <g id="status-success-svgrepo-com" transform="translate(1017 2318)">
      <path id="Path_344" data-name="Path 344" d="M0,11A11,11,0,1,1,11,22,11,11,0,0,1,0,11Z" fill="none" stroke="#fff" stroke-width="2" fill-rule="evenodd"/>
      <path id="Path_346" data-name="Path 346" d="M6.278,7.7,5.045,6.464a.3.3,0,0,0-.42,0l-.613.614a.3.3,0,0,0,0,.42l1.91,1.909a.5.5,0,0,0,.7.005l.265-.265L10,6.04a.291.291,0,0,0-.009-.408l-.614-.614a.29.29,0,0,0-.408-.009Z" transform="translate(4.001 4.205)" fill="#fff" fill-rule="evenodd"/>
    </g>
  </g>
</svg>
