<svg xmlns="http://www.w3.org/2000/svg" width="65" height="65" viewBox="0 0 65 65">
  <g id="Group_614" data-name="Group 614" transform="translate(-995 -2559)">
    <g id="Group_11" data-name="Group 11" transform="translate(995 2558.548)">
      <rect id="Rectangle_22" data-name="Rectangle 22" width="65" height="65" rx="13" transform="translate(0 0.452)" fill="#006380"/>
    </g>
    <g id="multi-skills-employee-svgrepo-com" transform="translate(1013.921 2580)">
      <g id="Group_608" data-name="Group 608">
        <path id="Path_347" data-name="Path 347" d="M91.9,156.467H85.519a3.654,3.654,0,0,0-3.65,3.65v3.3H95.546v-3.3A3.654,3.654,0,0,0,91.9,156.467Zm-2.811,1.251-.378.543-.378-.543Zm-5.966,2.4a2.4,2.4,0,0,1,2.4-2.4h1.287l1.14,1.638-1.955,2.81H83.119Zm5.588.334,1.193,1.715H87.514Zm5.588,1.715H91.424l-1.955-2.81,1.14-1.638H91.9a2.4,2.4,0,0,1,2.4,2.4v2.049Z" transform="translate(-75.044 -143.422)" fill="#fff"/>
        <path id="Path_348" data-name="Path 348" d="M123.544,72.247a3.67,3.67,0,1,0-3.67-3.67A3.674,3.674,0,0,0,123.544,72.247Zm0-6.089a2.419,2.419,0,1,1-2.419,2.419A2.422,2.422,0,0,1,123.544,66.159Z" transform="translate(-109.88 -59.497)" fill="#fff"/>
        <path id="Path_349" data-name="Path 349" d="M27.157,4.344V0H22.813V1.251h2.209L20.958,5.315A11.069,11.069,0,0,0,6.279,5.4L2.135,1.251H4.344V0H0V4.344H1.251V2.135L5.4,6.279a11.069,11.069,0,0,0-.08,14.678L1.251,25.022V22.813H0v4.344H4.344V25.906H2.135L6.19,21.852a11.07,11.07,0,0,0,14.858.081l3.974,3.974H22.813v1.251h4.344V22.813H25.906v2.209l-3.974-3.974A11.07,11.07,0,0,0,21.852,6.19l4.055-4.055V4.344ZM13.664,23.5A9.841,9.841,0,1,1,23.5,13.664,9.852,9.852,0,0,1,13.664,23.5Z" fill="#fff"/>
      </g>
    </g>
  </g>
</svg>
