<svg xmlns="http://www.w3.org/2000/svg" width="65" height="67" viewBox="0 0 65 67">
  <g id="Group_610" data-name="Group 610" transform="translate(-139 -2426)">
    <rect id="Rectangle_21" data-name="Rectangle 21" width="65" height="67" rx="13" transform="translate(139 2426)" fill="#f15a2b"/>
    <g id="time-svgrepo-com_1_" data-name="time-svgrepo-com (1)" transform="translate(160.999 2449)">
      <path id="Path_342" data-name="Path 342" d="M11,0A11,11,0,1,0,22,11,11.012,11.012,0,0,0,11,0Zm0,20.41A9.41,9.41,0,1,1,20.411,11,9.421,9.421,0,0,1,11,20.41Z" fill="#fff"/>
      <path id="Path_343" data-name="Path 343" d="M43.016,26.92H43l-2.7.04V19.9a.9.9,0,0,0-1.805,0v7.974s0,0,0,.005,0,.006,0,.008a.881.881,0,0,0,.012.107c0,.022,0,.045.008.066a.854.854,0,0,0,.035.111c.007.019.011.039.019.057a.935.935,0,0,0,.057.105c.009.015.016.032.026.047a.952.952,0,0,0,.077.094c.011.013.021.027.033.039a.949.949,0,0,0,.095.078c.013.01.025.022.039.031a.874.874,0,0,0,.113.062c.014.006.026.015.039.021a.926.926,0,0,0,.142.044c.009,0,.017.006.027.008a.917.917,0,0,0,.181.018h.014l3.613-.054a.9.9,0,0,0-.013-1.805Z" transform="translate(-28.677 -14.402)" fill="#fff"/>
    </g>
  </g>
</svg>
