<svg xmlns="http://www.w3.org/2000/svg" width="65" height="65" viewBox="0 0 65 65">
  <g id="Group_611" data-name="Group 611" transform="translate(-139 -2559)">
    <g id="Group_11" data-name="Group 11" transform="translate(139 2558.548)">
      <rect id="Rectangle_22" data-name="Rectangle 22" width="65" height="65" rx="13" transform="translate(0 0.452)" fill="#006380"/>
    </g>
    <g id="team-svgrepo-com" transform="translate(154.786 2561.511)">
      <g id="Group_10" data-name="Group 10" transform="translate(0 16.984)">
        <g id="Group_9" data-name="Group 9" transform="translate(0 0)">
          <path id="Path_54" data-name="Path 54" d="M222.24,154.593h.538a.538.538,0,1,0,0-1.075h-.538a.538.538,0,1,0,0,1.075Z" transform="translate(-207.732 -144.915)" fill="#fff"/>
          <path id="Path_55" data-name="Path 55" d="M94.24,86.326h.538a.538.538,0,0,0,0-1.075H94.24a.538.538,0,1,0,0,1.075Z" transform="translate(-87.798 -80.949)" fill="#fff"/>
          <path id="Path_56" data-name="Path 56" d="M179.595,91.571a6.387,6.387,0,0,0,.573,1.986,4.031,4.031,0,0,0,7.414,0,6.365,6.365,0,0,0,.574-1.986,1.076,1.076,0,0,0,.559-.943V89.553a1.076,1.076,0,0,0-.538-.931v-.145a3.229,3.229,0,0,0-3.226-3.226H182.8a3.229,3.229,0,0,0-3.226,3.226v.145a1.076,1.076,0,0,0-.538.931v1.075A1.075,1.075,0,0,0,179.595,91.571Zm.517-2.018a.538.538,0,0,0,.538-.538v-.538a2.153,2.153,0,0,1,2.151-2.151h2.151a2.153,2.153,0,0,1,2.151,2.151v.538a.538.538,0,0,0,.538.538v1.075a.538.538,0,0,0-.538.538,5.039,5.039,0,0,1-.481,1.91,2.96,2.96,0,0,1-5.49,0,5.046,5.046,0,0,1-.481-1.911.538.538,0,0,0-.538-.538V89.553Z" transform="translate(-167.755 -80.949)" fill="#fff"/>
          <path id="Path_57" data-name="Path 57" d="M112.666,205.277l-.447,2.679a.537.537,0,0,0,.441.619.558.558,0,0,0,.089.007.537.537,0,0,0,.53-.449l.372-2.224a13.968,13.968,0,0,1,2.139.2.538.538,0,0,0,.19-1.059,15.715,15.715,0,0,0-2.752-.223A.559.559,0,0,0,112.666,205.277Z" transform="translate(-105.141 -192.992)" fill="#fff"/>
          <path id="Path_58" data-name="Path 58" d="M384.373,86.326h.538a.538.538,0,1,0,0-1.075h-.538a.538.538,0,0,0,0,1.075Z" transform="translate(-359.649 -80.949)" fill="#fff"/>
          <path id="Path_59" data-name="Path 59" d="M264.907,154.593h.538a.538.538,0,0,0,0-1.075h-.538a.538.538,0,1,0,0,1.075Z" transform="translate(-247.711 -144.915)" fill="#fff"/>
          <path id="Path_60" data-name="Path 60" d="M427.04,86.326h.538a.538.538,0,1,0,0-1.075h-.538a.538.538,0,1,0,0,1.075Z" transform="translate(-399.628 -80.949)" fill="#fff"/>
          <path id="Path_61" data-name="Path 61" d="M341.727,23.3a6.389,6.389,0,0,0,.573,1.986,4.031,4.031,0,0,0,7.415,0,6.387,6.387,0,0,0,.573-1.986,1.076,1.076,0,0,0,.559-.943V21.286a1.076,1.076,0,0,0-.538-.931V20.21a3.229,3.229,0,0,0-3.226-3.226h-2.151a3.229,3.229,0,0,0-3.226,3.226v.145a1.076,1.076,0,0,0-.538.931v1.075A1.076,1.076,0,0,0,341.727,23.3Zm.517-2.018a.538.538,0,0,0,.538-.538V20.21a2.153,2.153,0,0,1,2.151-2.151h2.151a2.153,2.153,0,0,1,2.151,2.151v.538a.538.538,0,0,0,.538.538v1.075a.538.538,0,0,0-.538.538,5.037,5.037,0,0,1-.481,1.91,2.96,2.96,0,0,1-5.49,0,5.045,5.045,0,0,1-.481-1.911.538.538,0,0,0-.538-.538V21.286Z" transform="translate(-319.671 -16.984)" fill="#fff"/>
          <path id="Path_62" data-name="Path 62" d="M332.484,205.673a.538.538,0,0,0,.624.435,14.027,14.027,0,0,1,2.145-.2l.372,2.224a.537.537,0,0,0,.53.449.559.559,0,0,0,.089-.007.538.538,0,0,0,.441-.619l-.447-2.679a.55.55,0,0,0-.562-.449,15.764,15.764,0,0,0-2.757.223A.538.538,0,0,0,332.484,205.673Z" transform="translate(-311.525 -192.991)" fill="#fff"/>
          <path id="Path_63" data-name="Path 63" d="M3.208,205.278a.561.561,0,0,0-.564-.45,16.809,16.809,0,0,0-2.177.133.538.538,0,1,0,.14,1.066,15.012,15.012,0,0,1,1.615-.119l1.538,9.218a.537.537,0,0,0,.53.449.511.511,0,0,0,.089-.008.537.537,0,0,0,.441-.619Z" transform="translate(0 -192.992)" fill="#fff"/>
          <path id="Path_64" data-name="Path 64" d="M266.553,273.1a.56.56,0,0,0-.568.465l-1.613,11.823a.538.538,0,0,0,.46.605.567.567,0,0,0,.073,0,.538.538,0,0,0,.532-.465l1.549-11.352c2.292.056,4.061.553,4.895,1.385a1.752,1.752,0,0,1,.551,1.292v8.6a.538.538,0,1,0,1.075,0v-8.6a2.815,2.815,0,0,0-.867-2.053C271.539,273.7,269.378,273.1,266.553,273.1Z" transform="translate(-247.709 -256.957)" fill="#fff"/>
          <path id="Path_65" data-name="Path 65" d="M240.919,274.058a1.075,1.075,0,1,0-1.613.926V278.9a.538.538,0,0,0,1.075,0v-3.913A1.072,1.072,0,0,0,240.919,274.058Z" transform="translate(-223.723 -256.852)" fill="#fff"/>
          <path id="Path_66" data-name="Path 66" d="M341.707,375.384a.538.538,0,0,0-.538.538v6.452a.538.538,0,0,0,1.075,0v-6.452A.538.538,0,0,0,341.707,375.384Z" transform="translate(-319.671 -352.801)" fill="#fff"/>
          <path id="Path_67" data-name="Path 67" d="M411.587,205.792a1.077,1.077,0,1,0-1.615.925v3.914a.538.538,0,1,0,1.075,0v-3.912A1.073,1.073,0,0,0,411.587,205.792Z" transform="translate(-383.635 -192.888)" fill="#fff"/>
          <path id="Path_68" data-name="Path 68" d="M439.455,204.961a16.865,16.865,0,0,0-2.181-.133.554.554,0,0,0-.565.449l-1.616,9.672a.537.537,0,0,0,.441.619.506.506,0,0,0,.089.008.537.537,0,0,0,.53-.449l1.54-9.218a15.105,15.105,0,0,1,1.62.119.538.538,0,0,0,.141-1.066Z" transform="translate(-407.671 -192.992)" fill="#fff"/>
          <path id="Path_69" data-name="Path 69" d="M51.573,86.326h.538a.538.538,0,0,0,0-1.075h-.538a.538.538,0,1,0,0,1.075Z" transform="translate(-47.819 -80.949)" fill="#fff"/>
          <path id="Path_70" data-name="Path 70" d="M69.176,204.717a1.072,1.072,0,0,0-.538,2v3.913a.538.538,0,1,0,1.075,0v-3.913a1.072,1.072,0,0,0-.538-2Z" transform="translate(-63.81 -192.888)" fill="#fff"/>
          <path id="Path_71" data-name="Path 71" d="M8.928,23.3A6.373,6.373,0,0,0,9.5,25.29a3.7,3.7,0,0,0,3.707,2.448,3.7,3.7,0,0,0,3.707-2.448,6.366,6.366,0,0,0,.574-1.986,1.076,1.076,0,0,0,.559-.943V21.286a1.076,1.076,0,0,0-.538-.931V20.21a3.229,3.229,0,0,0-3.226-3.226H12.133A3.229,3.229,0,0,0,8.907,20.21v.145a1.076,1.076,0,0,0-.538.931v1.075A1.076,1.076,0,0,0,8.928,23.3Zm.517-2.018a.538.538,0,0,0,.538-.538V20.21a2.153,2.153,0,0,1,2.151-2.151h2.151a2.153,2.153,0,0,1,2.151,2.151v.538a.538.538,0,0,0,.538.538v1.075a.538.538,0,0,0-.538.538,5.039,5.039,0,0,1-.481,1.91,2.626,2.626,0,0,1-2.745,1.853,2.626,2.626,0,0,1-2.745-1.853A5.046,5.046,0,0,1,9.982,22.9a.538.538,0,0,0-.538-.538V21.286Z" transform="translate(-7.842 -16.984)" fill="#fff"/>
          <path id="Path_72" data-name="Path 72" d="M153.973,375.384a.538.538,0,0,0-.538.538v6.452a.538.538,0,1,0,1.075,0v-6.452A.538.538,0,0,0,153.973,375.384Z" transform="translate(-143.767 -352.801)" fill="#fff"/>
          <path id="Path_73" data-name="Path 73" d="M109.759,273.56a.538.538,0,0,0-.532-.465c-2.825,0-5.018.6-6.124,1.7a2.813,2.813,0,0,0-.867,2.053v8.6a.538.538,0,1,0,1.075,0v-8.6a1.751,1.751,0,0,1,.552-1.292c.833-.832,2.6-1.329,4.894-1.384l1.549,11.352a.538.538,0,0,0,.532.465.568.568,0,0,0,.074,0,.538.538,0,0,0,.46-.605Z" transform="translate(-95.794 -256.957)" fill="#fff"/>
        </g>
      </g>
    </g>
  </g>
</svg>
