<svg xmlns="http://www.w3.org/2000/svg" width="65" height="66" viewBox="0 0 65 66">
  <g id="Group_609" data-name="Group 609" transform="translate(-139 -2296)">
    <rect id="Rectangle_21" data-name="Rectangle 21" width="65" height="66" rx="13" transform="translate(139 2296)" fill="#f0bb1f"/>
    <path id="update-svgrepo-com" d="M2.67,11.9A9.672,9.672,0,0,0,10.8,21.53a.9.9,0,0,1-.309,1.782A11.481,11.481,0,0,1,.861,11.9a9.478,9.478,0,0,1,2.63-6.357A21.619,21.619,0,0,1,6.6,2.767H3.761a.868.868,0,0,1,0-1.735H8.967a.868.868,0,0,1,.868.868V7.106a.868.868,0,1,1-1.735,0V3.9l0,0h0A21.589,21.589,0,0,0,4.843,6.749,7.68,7.68,0,0,0,2.67,11.9Zm19.276.705a9.666,9.666,0,0,0-8-9.6.9.9,0,1,1,.334-1.778,11.475,11.475,0,0,1,9.47,11.38,9.478,9.478,0,0,1-2.63,6.357,21.633,21.633,0,0,1-3.11,2.78h2.84a.868.868,0,0,1,0,1.735H15.648a.868.868,0,0,1-.868-.868V17.407a.868.868,0,1,1,1.735,0v3.2l0,0a21.584,21.584,0,0,0,3.254-2.843A7.679,7.679,0,0,0,21.946,12.609Z" transform="translate(159.412 2316.744)" fill="#fff" fill-rule="evenodd"/>
  </g>
</svg>
