<svg xmlns="http://www.w3.org/2000/svg" width="209.757" height="43.025" viewBox="0 0 209.757 43.025">
  <path id="GoDaddy-Logo-Logo.wine" d="M41.68,1.966C36.658-1.171,30.047-.424,24.151,3.281,18.274-.424,11.659-1.171,6.643,1.966c-7.934,4.958-8.9,17.727-2.153,28.522C9.463,38.447,17.239,43.11,24.161,43.024c6.922.086,14.7-4.577,19.671-12.536C50.57,19.694,49.614,6.925,41.68,1.966ZM8.138,28.209a25.858,25.858,0,0,1-3.113-7.127,20.379,20.379,0,0,1-.676-6.719c.3-3.989,1.925-7.1,4.571-8.749s6.144-1.753,9.869-.274c.559.223,1.112.481,1.661.766A30.484,30.484,0,0,0,15.1,12.536c-4.1,6.554-5.345,13.846-3.916,19.661a26.462,26.462,0,0,1-3.047-3.987ZM43.3,21.08a25.919,25.919,0,0,1-3.113,7.127,26.7,26.7,0,0,1-3.047,4c1.278-5.212.41-11.6-2.724-17.586a.791.791,0,0,0-1.133-.307l-9.769,6.1a.8.8,0,0,0-.254,1.1l1.434,2.292a.8.8,0,0,0,1.1.254L32.126,20.1c.2.614.41,1.229.563,1.843a20.375,20.375,0,0,1,.678,6.711c-.3,3.987-1.925,7.094-4.571,8.749a8.933,8.933,0,0,1-4.528,1.311h-.2a8.923,8.923,0,0,1-4.528-1.311c-2.648-1.655-4.272-4.762-4.573-8.749a20.429,20.429,0,0,1,.676-6.72A26.593,26.593,0,0,1,23.795,8.886a20.42,20.42,0,0,1,5.734-3.551c3.715-1.479,7.219-1.38,9.867.274s4.27,4.759,4.571,8.749A20.43,20.43,0,0,1,43.3,21.08Zm50.425-4.766a9.065,9.065,0,1,0,9.322,9.111,9.152,9.152,0,0,0-9.322-9.111Zm0,13.359a4.281,4.281,0,1,1,0,.008Zm20.9-20.357h-9.451a.758.758,0,0,0-.772.774V33.132a.766.766,0,0,0,.772.819h9.451c7.563,0,12.818-5.03,12.818-12.347,0-7.362-5.255-12.288-12.818-12.288Zm.223,19.769h-5.171V14.17h5.171c4.186,0,7.072,3.131,7.072,7.424,0,4.221-2.886,7.491-7.072,7.491ZM146.26,16.81h-3.553a.8.8,0,0,0-.737.774v1.055a5.657,5.657,0,0,0-4.915-2.322,8.659,8.659,0,0,0-8.583,9.042,8.679,8.679,0,0,0,8.548,9.075,5.733,5.733,0,0,0,4.96-2.32V33.2a.744.744,0,0,0,.737.739h3.553a.723.723,0,0,0,.739-.739V17.584a.752.752,0,0,0-.75-.774Zm-8.266,12.9a4.1,4.1,0,0,1-4.121-4.317,4.125,4.125,0,1,1,8.241,0,4.1,4.1,0,0,1-4.121,4.317ZM166.2,9.316h-3.553a.75.75,0,0,0-.772.739v8.513a5.911,5.911,0,0,0-4.995-2.253c-4.4,0-8.479,3.482-8.479,9.042a8.679,8.679,0,0,0,8.548,9.075,5.919,5.919,0,0,0,4.96-2.32V33.2a.741.741,0,0,0,.737.739H166.2a.721.721,0,0,0,.739-.739V10.06a.721.721,0,0,0-.739-.743Zm-8.266,20.439a4.109,4.109,0,0,1-4.1-4.362,4.1,4.1,0,1,1,8.192,0A4.108,4.108,0,0,1,157.939,29.755ZM186.146,9.316H182.6a.752.752,0,0,0-.774.739v8.513a5.9,5.9,0,0,0-4.995-2.253c-4.4,0-8.479,3.482-8.479,9.042a8.68,8.68,0,0,0,8.548,9.075,5.916,5.916,0,0,0,4.96-2.32V33.2a.744.744,0,0,0,.739.739h3.547a.719.719,0,0,0,.737-.739V10.06a.719.719,0,0,0-.737-.743ZM177.88,29.755a4.108,4.108,0,0,1-4.1-4.362,4.1,4.1,0,1,1,8.192,0,4.1,4.1,0,0,1-4.09,4.362ZM205.6,18.008l-5.3,18.184a6.761,6.761,0,0,1-6.861,5.171,8.57,8.57,0,0,1-4.239-.989c-.672-.383-1.229-.733-1.229-1.294a1.42,1.42,0,0,1,.317-.854l1.053-1.577c.3-.44.516-.584.836-.584a1.215,1.215,0,0,1,.7.244,3.8,3.8,0,0,0,2.212.8,2.213,2.213,0,0,0,2.38-1.653l.455-1.509h-2.146a.943.943,0,0,1-.95-.739l-4.745-15.2c-.176-.6-.014-1.2.864-1.2h3.738c.457,0,.776.156.977.809l3.5,12.237,3.277-12.237a.954.954,0,0,1,.95-.809h3.545c.7,0,.909.489.666,1.2ZM83.1,23.417V33.13a.791.791,0,0,1-.8.8H79.363a.788.788,0,0,1-.8-.8v-2.55A11.11,11.11,0,0,1,69.8,34.412c-6.877,0-12.251-5.173-12.251-12.538,0-7.653,5.8-12.929,13.132-12.929,5.411,0,9.736,2.327,11.657,7.006a1.067,1.067,0,0,1,.088.391c0,.221-.146.389-.614.551l-3.424,1.319a.879.879,0,0,1-.647.01.991.991,0,0,1-.41-.469,7.174,7.174,0,0,0-6.783-3.924c-4.366,0-7.493,3.41-7.493,7.831,0,4.286,2.662,7.811,7.618,7.811a7.03,7.03,0,0,0,5.655-2.578H73.233a.791.791,0,0,1-.8-.8v-2.64a.791.791,0,0,1,.8-.8H82.3a.764.764,0,0,1,.8.768Zm122.6-10.2v-.236a.057.057,0,0,1,.059-.062h1.5a.059.059,0,0,1,.043.016.065.065,0,0,1,.016.045v.235a.068.068,0,0,1-.016.043.059.059,0,0,1-.043.016h-.547V14.75a.064.064,0,0,1-.062.061h-.283a.055.055,0,0,1-.041-.018.061.061,0,0,1-.018-.043V13.273h-.547a.055.055,0,0,1-.059-.059Zm2.617-.244.41.948.41-.948a.084.084,0,0,1,.033-.041.11.11,0,0,1,.055-.012h.475a.055.055,0,0,1,.059.057v1.778a.053.053,0,0,1-.015.043.056.056,0,0,1-.042.017h-.266a.059.059,0,0,1-.043-.016.054.054,0,0,1-.016-.043V13.41l-.44.975a.106.106,0,0,1-.033.047.1.1,0,0,1-.055.012h-.217a.1.1,0,0,1-.053-.012.092.092,0,0,1-.033-.047l-.438-.975v1.341a.068.068,0,0,1-.016.043.066.066,0,0,1-.041.016h-.272a.053.053,0,0,1-.039-.016.054.054,0,0,1-.016-.043V12.974a.055.055,0,0,1,.059-.057h.461a.108.108,0,0,1,.053.012.083.083,0,0,1,.023.041Z" fill="#ccc"/>
</svg>
