<svg xmlns="http://www.w3.org/2000/svg" xmlns:xlink="http://www.w3.org/1999/xlink" width="108.051" height="43.329" viewBox="0 0 108.051 43.329">
  <defs>
    <clipPath id="clip-path">
      <path id="Union_1" data-name="Union 1" d="M92.9,43.329V18.676L84.128,43.325l-.182,0L75.016,18.676V43.329H60.028v-8.86h5.88V8.968H59.863V.108H76.919L84,19.87,90.995.108h16.892v8.86h-5.88v25.5h6.044v8.86Zm-68.887,0v-8.86h6.044V8.968H24.012V.108H46.868a11.411,11.411,0,0,1,7.116,2.957l2.406,2.8c.681.677,1.072,2.953,1.072,2.953l.249,2.794a10.075,10.075,0,0,1-.578,2.961l-1.245,2.794a9.974,9.974,0,0,1-2.566,2.957v2.794a9.975,9.975,0,0,1,2.566,2.957l1.245,2.794a10.075,10.075,0,0,1,.578,2.961l-.249,2.794s-.391,2.276-1.072,2.953l-2.406,2.8a11.411,11.411,0,0,1-7.116,2.957Zm15.152-8.86h8.859V26.257H39.165Zm0-17.288h8.859V8.968H39.165Zm-39,26.149v-8.86h5.88V8.968H0V0H21.032V8.968h-5.88v25.5H21.2v8.86Z" transform="translate(0 -1)" fill="none" stroke="#ccc" stroke-width="1"/>
    </clipPath>
  </defs>
  <g id="IBM-Logo.wine" transform="translate(0 1)" clip-path="url(#clip-path)">
    <path id="Path_212" data-name="Path 212" d="M0,13.683H111.294v5.752H0m0,5.752H105.351V30.94H0V36.69H105.351v5.751H0m0,5.753H111.294v5.753H0" transform="translate(0 -13.096)" fill="none" stroke="#ccc" stroke-width="3"/>
  </g>
</svg>
