<svg xmlns="http://www.w3.org/2000/svg" width="202.333" height="42.042" viewBox="0 0 202.333 42.042">
  <g id="moodys-corporation-logo-vector" transform="translate(-15.102 -262.3)">
    <g id="Group_10" data-name="Group 10" transform="translate(15.102 262.3)">
      <path id="Path_211" data-name="Path 211" d="M67.556,303.369c.422-.195.422-1.233.195-1.46l-2.076-.195c-2.887-.195-2.887-1.849-3.082-4.963-.422-8.888-.616-20.242-.616-26.828,0-4.347.422-5.353,4.347-5.774l1.233-.195c.422-.195.422-1.233,0-1.46a55.338,55.338,0,0,1-5.58.195,42.672,42.672,0,0,1-4.542-.195c-.195,2.887-1.849,6.2-4.736,11.776l-5.774,11.776c-1.46,3.082-3.082,6.391-4.736,9.278-1.46-2.692-2.887-5.58-4.347-8.467l-7.007-14.436c-1.849-3.925-3.5-7.623-3.309-10.121a45.76,45.76,0,0,1-4.963.195A44.3,44.3,0,0,1,17.6,262.3c-.422.195-.616,1.233-.195,1.46l1.038.195c3.731.616,4.347,1.46,4.12,5.353-.195,3.309-.422,8.661-.811,13.819-.422,6.2-.616,9.5-1.038,13.625-.422,4.347-1.233,4.736-3.925,5.158l-1.46.195a1.026,1.026,0,0,0,.195,1.46c2.076-.195,4.347-.195,6.2-.195,2.271,0,4.736,0,6.812.195.422-.195.422-1.233,0-1.46l-2.271-.195c-2.465-.195-2.692-1.233-2.692-5.774,0-5.158.195-10.738.422-14.436.195-3.5.422-7.234.616-10.932H24.8c1.46,2.887,2.692,6,3.925,8.888l5.58,11.97a119.9,119.9,0,0,1,5.353,12.392,1.073,1.073,0,0,0,1.233,0c1.038-2.887,3.925-8.661,6.618-14.046l5.774-11.159c1.233-2.465,3.5-7.429,3.925-8.045H57.4l.195,25.79c0,3.925,0,4.963-3.082,5.158l-1.849.195a.883.883,0,0,0,.195,1.46c2.465-.195,5.353-.195,7.429-.195C62.593,303.174,65.059,303.369,67.556,303.369Zm31.369-13.625c0-7.623-5.158-14.241-15.052-14.241-8.888,0-15.279,6.391-15.279,14.436,0,7.85,5.774,14.046,15.279,14.046C92.5,304.212,98.926,298.016,98.926,289.744Zm-24.979.227c-.811-8.661,3.925-12.165,8.272-12.392,6.812-.616,10.51,5.774,11.159,12.392.616,8.467-3.5,11.97-8.272,12.392C78.067,302.752,74.563,296.362,73.947,289.971ZM202.116,268.3c0-3.309-2.271-6-4.736-6s-2.887,1.654-2.887,2.465a1.512,1.512,0,0,0,1.654,1.654,3.265,3.265,0,0,1,3.082,3.5c0,2.465-2.465,4.347-4.736,5.353a.985.985,0,0,0,.422,1.233C198.807,275.73,202.116,272.616,202.116,268.3Zm10.51,20.21-3.925-2.076c-2.465-1.233-4.12-2.692-4.12-4.963,0-2.076,1.46-4.12,4.963-4.12,3.731,0,5.158,3.082,5.774,5.353.195.422,1.46.422,1.654-.195a19.473,19.473,0,0,0-.811-6,25.561,25.561,0,0,0-5.774-.811c-6.2,0-9.7,3.082-9.7,7.623,0,3.5,2.465,5.774,5.58,7.429l2.693,1.46c3.5,1.849,4.347,3.925,4.347,5.774,0,2.887-2.076,4.542-5.158,4.542-4.12,0-6.812-4.347-7.429-6.618a.974.974,0,0,0-1.654.195,14.918,14.918,0,0,0,1.233,6.391,12.449,12.449,0,0,0,7.007,1.849c6.2,0,10.121-3.082,10.121-7.85A8.337,8.337,0,0,0,212.627,288.511Zm-56.348-10.932a27.27,27.27,0,0,0-9.278-1.46c-4.963,0-8.467.195-11.97.422-.616.195-.616,1.46,0,1.46l1.849.195c1.46.195,1.46,1.233,1.46,5.158v13.008c0,4.347-.195,4.542-2.887,4.963l-1.233.195c-.422.422-.422,1.46.195,1.46,2.465-.195,4.347-.195,6.391-.195a20.016,20.016,0,0,1,3.309.195,27.856,27.856,0,0,0,4.12.195c3.082,0,6.618-.422,9.278-1.849a12.985,12.985,0,0,0,7.429-11.97A12.276,12.276,0,0,0,156.279,277.579Zm-8.045,24.135c-4.736,0-5.353-2.076-5.353-6V281.05c0-1.46,0-2.076.422-2.465.422-.422,1.654-.616,3.731-.616,7.007,0,12.165,3.925,12.165,11.549S155.663,301.714,148.234,301.714Zm42.95-25.368a35.51,35.51,0,0,1-4.347.195,41.822,41.822,0,0,1-4.736-.195.892.892,0,0,0-.195,1.46l1.233.195c1.46.195,1.46.811.422,2.465l-2.271,4.542c-1.038,2.076-2.076,3.5-2.887,5.158-.811-1.654-1.849-3.309-2.692-5.158l-2.271-4.347c-1.038-1.849-.811-2.271.616-2.693l.811-.195c.616-.195.422-1.233,0-1.46a47.74,47.74,0,0,1-5.158.195,55.026,55.026,0,0,1-5.774-.195c-.422.195-.616,1.233-.195,1.46l1.654.195c1.654.422,2.271.811,3.5,3.309l4.542,8.272c1.654,2.887,1.654,3.309,1.654,5.158V297.4c0,3.731-.195,4.12-2.887,4.347l-1.46.195c-.422.422-.422,1.46.195,1.46,2.692-.195,4.736-.195,6.618-.195,1.849,0,3.925,0,6.618.195.422-.195.616-1.233.195-1.46l-1.849-.195c-2.692-.195-2.887-.616-2.887-4.347v-3.309c0-1.849.195-2.465,2.271-6l3.925-6.2c1.849-3.082,2.271-3.5,4.12-3.925l1.46-.195A.885.885,0,0,0,191.184,276.346Zm-74.092-.843c-8.888,0-15.279,6.391-15.279,14.436,0,7.85,5.774,14.046,15.279,14.046,8.661,0,15.052-6,15.052-14.436C131.949,282.121,126.986,275.5,117.092,275.5Zm1.233,26.828c-7.234.616-10.51-6-11.159-12.392-.811-8.661,3.925-12.165,8.272-12.392,6.812-.616,10.51,5.774,11.159,12.392C127.18,298.211,123.061,301.941,118.324,302.331Z" transform="translate(-15.102 -262.3)" fill="#ccc"/>
    </g>
  </g>
</svg>
