<svg id="NASA-Logo.wine" xmlns="http://www.w3.org/2000/svg" width="88.124" height="72.115" viewBox="0 0 88.124 72.115">
  <path id="Path_285" data-name="Path 285" d="M36.057,0A36.057,36.057,0,1,1,0,36.057,36.057,36.057,0,0,1,36.057,0Z" transform="translate(4.906 0)" fill="#ccc"/>
  <g id="Group_9" data-name="Group 9" transform="translate(0 2.662)">
    <circle id="Ellipse_45" data-name="Ellipse 45" cx="0.404" cy="0.404" r="0.404" transform="translate(38.43 3.86)" fill="#091f20"/>
    <circle id="Ellipse_46" data-name="Ellipse 46" cx="0.404" cy="0.404" r="0.404" transform="translate(42.58 4.399)" fill="#091f20"/>
    <circle id="Ellipse_47" data-name="Ellipse 47" cx="0.404" cy="0.404" r="0.404" transform="translate(48.023 11.729)" fill="#091f20"/>
    <circle id="Ellipse_48" data-name="Ellipse 48" cx="0.404" cy="0.404" r="0.404" transform="translate(18.164 49.457)" fill="#091f20"/>
    <circle id="Ellipse_49" data-name="Ellipse 49" cx="0.404" cy="0.404" r="0.404" transform="translate(19.215 52.691)" fill="#091f20"/>
    <circle id="Ellipse_50" data-name="Ellipse 50" cx="0.303" cy="0.303" r="0.303" transform="translate(14.304 50.044)" fill="#091f20"/>
    <circle id="Ellipse_51" data-name="Ellipse 51" cx="0.304" cy="0.304" r="0.304" transform="translate(30.742 56.395)" fill="#091f20"/>
    <circle id="Ellipse_52" data-name="Ellipse 52" cx="0.303" cy="0.303" r="0.303" transform="translate(56.526 51.041)" fill="#091f20"/>
    <circle id="Ellipse_53" data-name="Ellipse 53" cx="0.304" cy="0.304" r="0.304" transform="translate(64.017 42.901)" fill="#091f20"/>
    <circle id="Ellipse_54" data-name="Ellipse 54" cx="0.303" cy="0.303" r="0.303" transform="translate(27.294 14.195)" fill="#091f20"/>
    <circle id="Ellipse_55" data-name="Ellipse 55" cx="0.303" cy="0.303" r="0.303" transform="translate(35.54 8.138)" fill="#091f20"/>
    <circle id="Ellipse_56" data-name="Ellipse 56" cx="0.303" cy="0.303" r="0.303" transform="translate(34.644 7.546)" fill="#091f20"/>
    <circle id="Ellipse_57" data-name="Ellipse 57" cx="0.303" cy="0.303" r="0.303" transform="translate(33.836 6.953)" fill="#091f20"/>
    <circle id="Ellipse_58" data-name="Ellipse 58" cx="0.303" cy="0.303" r="0.303" transform="translate(28.587 15.759)" fill="#091f20"/>
    <circle id="Ellipse_59" data-name="Ellipse 59" cx="0.303" cy="0.303" r="0.303" transform="translate(40.734)" fill="#091f20"/>
    <circle id="Ellipse_60" data-name="Ellipse 60" cx="0.303" cy="0.303" r="0.303" transform="translate(42.729 8.731)" fill="#091f20"/>
    <circle id="Ellipse_61" data-name="Ellipse 61" cx="0.303" cy="0.303" r="0.303" transform="translate(39.582 7.026)" fill="#091f20"/>
    <circle id="Ellipse_62" data-name="Ellipse 62" cx="0.303" cy="0.303" r="0.303" transform="translate(34.192 9.345)" fill="#091f20"/>
    <circle id="Ellipse_63" data-name="Ellipse 63" cx="0.303" cy="0.303" r="0.303" transform="translate(57.961 59.038)" fill="#091f20"/>
    <circle id="Ellipse_64" data-name="Ellipse 64" cx="0.304" cy="0.304" r="0.304" transform="translate(17.753 51.606)" fill="#091f20"/>
    <circle id="Ellipse_65" data-name="Ellipse 65" cx="0.304" cy="0.304" r="0.304" transform="translate(38.827 55.513)" fill="#091f20"/>
    <circle id="Ellipse_66" data-name="Ellipse 66" cx="0.304" cy="0.304" r="0.304" transform="translate(24.025 51.363)" fill="#091f20"/>
    <circle id="Ellipse_67" data-name="Ellipse 67" cx="0.304" cy="0.304" r="0.304" transform="translate(26.646 55.642)" fill="#091f20"/>
    <circle id="Ellipse_68" data-name="Ellipse 68" cx="0.303" cy="0.303" r="0.303" transform="translate(45.942 52.948)" fill="#091f20"/>
    <circle id="Ellipse_69" data-name="Ellipse 69" cx="0.303" cy="0.303" r="0.303" transform="translate(56.58 46.944)" fill="#091f20"/>
    <circle id="Ellipse_70" data-name="Ellipse 70" cx="0.303" cy="0.303" r="0.303" transform="translate(64.644 50.629)" fill="#091f20"/>
    <circle id="Ellipse_71" data-name="Ellipse 71" cx="0.303" cy="0.303" r="0.303" transform="translate(67.393 52.388)" fill="#091f20"/>
    <circle id="Ellipse_72" data-name="Ellipse 72" cx="0.303" cy="0.303" r="0.303" transform="translate(67.845 47.591)" fill="#091f20"/>
    <circle id="Ellipse_73" data-name="Ellipse 73" cx="0.303" cy="0.303" r="0.303" transform="translate(27.744 40.8)" fill="#091f20"/>
    <circle id="Ellipse_74" data-name="Ellipse 74" cx="0.404" cy="0.404" r="0.404" transform="translate(27.758 47.651)" fill="#091f20"/>
    <circle id="Ellipse_75" data-name="Ellipse 75" cx="0.404" cy="0.404" r="0.404" transform="translate(30.183 52.772)" fill="#091f20"/>
    <circle id="Ellipse_76" data-name="Ellipse 76" cx="0.404" cy="0.404" r="0.404" transform="translate(59.234 47.436)" fill="#091f20"/>
    <circle id="Ellipse_77" data-name="Ellipse 77" cx="0.404" cy="0.404" r="0.404" transform="translate(69.69 46.843)" fill="#091f20"/>
    <circle id="Ellipse_78" data-name="Ellipse 78" cx="0.404" cy="0.404" r="0.404" transform="translate(64.516 44.633)" fill="#091f20"/>
    <circle id="Ellipse_79" data-name="Ellipse 79" cx="0.404" cy="0.404" r="0.404" transform="translate(59.234 44.849)" fill="#091f20"/>
    <path id="Path_207" data-name="Path 207" d="M56.189,12.115l1.005-.1-1-.057a.446.446,0,0,0-.383-.371l-.1-1L55.654,11.6a.444.444,0,0,0-.343.381l-1.028.093,1.035.056a.445.445,0,0,0,.354.341l.093,1.031.055-1.029A.45.45,0,0,0,56.189,12.115ZM39.224,23.306l1.005-.1-1-.057a.445.445,0,0,0-.383-.371l-.1-1-.057,1.009a.444.444,0,0,0-.344.381l-1.028.093,1.035.056a.445.445,0,0,0,.354.341l.093,1.031.056-1.029a.447.447,0,0,0,.367-.358ZM76.8,52.894l1.005-.1-1-.057a.445.445,0,0,0-.383-.371l-.1-1-.057,1.009a.444.444,0,0,0-.343.381l-1.028.093,1.035.056a.445.445,0,0,0,.354.341l.093,1.031.056-1.029a.448.448,0,0,0,.367-.358ZM35.828,68.364l1.005-.1-1-.057a.446.446,0,0,0-.383-.371l-.1-1-.057,1.008a.444.444,0,0,0-.344.381l-1.028.093,1.035.056a.444.444,0,0,0,.354.341l.093,1.031.056-1.029a.448.448,0,0,0,.367-.358ZM73.61,60.819l1.005-.1-1-.057a.445.445,0,0,0-.383-.371l-.1-1L73.077,60.3a.444.444,0,0,0-.343.381l-1.028.093,1.035.056a.445.445,0,0,0,.354.341l.093,1.031.056-1.029a.446.446,0,0,0,.366-.357Z" transform="translate(-7.446 -8.105)" fill="#091f20"/>
    <path id="Path_208" data-name="Path 208" d="M53.962,32.622c-4.192,1.629-8.281,3.084-11.732,4.164-7.011,2.2-26.194,8.138-37.782,15.63l.97.377A70.918,70.918,0,0,1,21.48,46.164c4.8-1.509,20.3-5.138,27.326-7.114,2.372-.667,5.151-1.541,8.094-2.605q-1.047-1.461-2.167-2.868-.381-.484-.771-.954Zm5.122,7.06c-1.015.685-1.866,1.232-2.461,1.577C53.173,43.253,36.356,54.733,32.53,57.374S18.086,70.04,14.96,72.95l-.108,1.185A208.988,208.988,0,0,1,32.1,59.8c4.959-3.773,15.216-10.752,18.7-12.989q5-3.207,9.036-5.9l-.132-.222q-.3-.5-.622-1Zm15.755-16.64a159.331,159.331,0,0,1-20.157,9.3q.269.33.536.666,1.259,1.585,2.375,3.184a82,82,0,0,0,17.516-8.623A187.4,187.4,0,0,1,59.634,39.307q.381.621.738,1.241c7.476-5,12.506-8.685,15.437-11.147,4.042-3.4,13.259-11,16.762-21.182A60.824,60.824,0,0,1,74.839,23.042Z" transform="translate(-4.448 -7.863)" fill="#fff"/>
    <path id="Path_209" data-name="Path 209" d="M41.943,51.229c-.795-1-1.894-2.341-2.72-3.38q-1.617-2.034-3.061-4.2l-.914.229A63.789,63.789,0,0,0,39,49.127c1,1.258,1.907,2.27,2.372,2.9.094.128.281.41.534.785l.881-.6q-.439-.477-.843-.985Zm5.8,5.268c-.653-.618-2.237-1.65-3.885-3.2q-.546.375-1.1.758c1.064,1.5,2.514,3.343,3.65,3.88C48.121,58.746,48.582,57.288,47.746,56.5ZM56.39,34.048c-9.425-11.863-20.938-18.38-25.9-14.435-3.855,3.063-2.273,12.015,3.042,21.42l.817-.278c-5.364-9.163-6.831-17.677-3.2-20.567,4.57-3.631,15.6,2.911,24.755,14.43a68.276,68.276,0,0,1,4.97,7.11c5.4,8.938,7.058,17.021,3.326,20.32-1.142,1.01-4.631,1.406-9.2-.651-.064.08.039.3.119.349,3.945,1.586,7.724,2.191,9.632.676,4.585-3.643,1.063-16.51-8.362-28.372ZM15.969,35.456h6.036l5.066,8.6v-6.71a2.9,2.9,0,0,0-1.294-1.886h4.177a2.669,2.669,0,0,0-1.078,1.886v9.863c0,.606.876,1.442,1.294,1.765H24.35L19.2,40.333v6.791c0,.674.66,1.32,1.347,1.873H16.1A2.438,2.438,0,0,0,17.4,47.205c.054-.674,0-9.365,0-9.742C17.4,36.641,16.6,35.968,15.969,35.456Z" transform="translate(-5.62 -8.905)" fill="#fff"/>
    <path id="Path_210" data-name="Path 210" d="M73.074,50.873H81.1a2.116,2.116,0,0,1-1.213-1.334c-.269-.7-4.527-12.181-4.527-12.181H72.311q-1.3.935-2.785,1.974c0,.025-.005.05-.01.075-.133.808-2.522,9.463-2.668,9.89-.2.593-1.24,1.253-1.657,1.6h4.325a1.95,1.95,0,0,1-.7-1.5c.081-.539.323-1.617.323-1.617h4.473a8.207,8.207,0,0,1,.431,1.482C74.138,49.822,73.573,50.442,73.074,50.873Zm-3.53-4.81,1.509-4.932,1.994,4.932Zm-.68-8.212.667-.492H68.358C68.475,37.466,68.668,37.636,68.864,37.851ZM38.149,49.4c.081-.539.323-1.617.323-1.617h4.473a8.208,8.208,0,0,1,.431,1.482c.094.552-.472,1.172-.97,1.6h7.07l.44-.3a2.693,2.693,0,0,1-.693-1.038c-.269-.7-4.527-12.181-4.527-12.181H37.69c.337.31,1.307,1.145,1.159,2.048-.132.808-2.522,9.463-2.668,9.89-.2.593-1.24,1.253-1.657,1.6h4.325A1.95,1.95,0,0,1,38.149,49.4Zm2.237-8.273,1.994,4.932h-3.5Zm22.187,2.936Q60.594,45.385,58.4,46.82c.658.319,1.181.72,1.232,1.237.093.972-1.859,1.442-3.625,1.24a4.361,4.361,0,0,1-1.03-.257l-1.112.715c-.382.245-.845.547-1.374.9v1.4A2.465,2.465,0,0,1,54.2,50.712a9.523,9.523,0,0,0,4.81.606c1.779-.1,5.215-1.994,5.161-4.177A4.2,4.2,0,0,0,62.572,44.067Zm-10.087,3.37v1.421q.486-.325.958-.637A7.082,7.082,0,0,1,52.485,47.437Zm8.834-4.262c-.341-.2-.687-.379-1.019-.535-1.725-.808-3.53-.957-3.908-2.048-.266-.77.485-1.482,2.318-1.455A7.2,7.2,0,0,1,62.7,40.645V37.169c-.135.135-.726.813-1.267.7a23.676,23.676,0,0,0-4.824-.485,4.341,4.341,0,0,0-4.379,4.069c-.094,3.166,2.439,4.029,3.867,4.527.147.051.315.106.5.164,1.37-.891,2.453-1.577,3.087-1.943C60.107,43.957,60.665,43.605,61.319,43.175Z" transform="translate(-7.507 -10.808)" fill="#fff"/>
  </g>
</svg>
