<svg id="port-svgrepo-com" xmlns="http://www.w3.org/2000/svg" width="105" height="105" viewBox="0 0 105 105">
  <path id="Path_322" data-name="Path 322" d="M105,99.242A5.711,5.711,0,0,1,99.242,105H5.758A5.711,5.711,0,0,1,0,99.242V5.758A5.711,5.711,0,0,1,5.758,0H99.242A5.711,5.711,0,0,1,105,5.758Z" fill="#afbcb8"/>
  <path id="Path_323" data-name="Path 323" d="M0,5.758A5.711,5.711,0,0,1,5.758,0H99.242A5.711,5.711,0,0,1,105,5.758V99.242A5.711,5.711,0,0,1,99.242,105" fill="#53b1e2"/>
  <path id="Path_324" data-name="Path 324" d="M137.29,133.056a4.092,4.092,0,0,1-4.234,4.234H60.234A4.193,4.193,0,0,1,56,133.056V60.234A4.193,4.193,0,0,1,60.234,56h72.653a4.092,4.092,0,0,1,4.234,4.234v72.823Z" transform="translate(-44.145 -44.145)" fill="#c0ccc7"/>
  <path id="Path_325" data-name="Path 325" d="M56,60.234A4.193,4.193,0,0,1,60.234,56h72.653a4.092,4.092,0,0,1,4.234,4.234v72.823a4.1,4.1,0,0,1-4.4,4.065" transform="translate(-44.145 -44.145)" fill="#b2bfb8"/>
  <g id="Group_606" data-name="Group 606" transform="translate(23.71 27.097)">
    <path id="Path_326" data-name="Path 326" d="M169.581,162.718c0,2.71-2.032,4.234-4.742,4.234h-48.1c-2.71,0-4.742-1.524-4.742-4.234V133.25c0-2.71,2.032-5.25,4.742-5.25h48.1c2.71,0,4.742,2.54,4.742,5.25v29.468Z" transform="translate(-112 -128)" fill="#a3b2a9"/>
    <path id="Path_327" data-name="Path 327" d="M183.419,227.6a5.061,5.061,0,0,1-4.573,4.573H140.573A5.061,5.061,0,0,1,136,227.6v-23.54c0-2.2,2.371-4.065,4.573-4.065h38.444c2.2,0,4.573,1.863,4.573,4.065V227.6Z" transform="translate(-130.919 -184.758)" fill="#a3b2a9"/>
    <path id="Path_328" data-name="Path 328" d="M197.258,301.508c0,1.694-2.032,2.2-3.726,2.2H163.726c-1.694,0-3.726-.677-3.726-2.2v-18.29c0-1.694,2.032-3.218,3.726-3.218h29.637c1.694,0,3.726,1.524,3.726,3.218v18.29Z" transform="translate(-149.839 -247.823)" fill="#a3b2a9"/>
  </g>
  <g id="Group_607" data-name="Group 607" transform="translate(23.71 23.71)">
    <path id="Path_329" data-name="Path 329" d="M169.581,147.056c0,2.71-2.032,5.589-4.742,5.589h-48.1c-2.71,0-4.742-2.879-4.742-5.589V117.589c0-2.71,2.032-5.589,4.742-5.589h48.1c2.71,0,4.742,2.879,4.742,5.589v29.468Z" transform="translate(-112 -112)" fill="#112827"/>
    <path id="Path_330" data-name="Path 330" d="M183.419,211.944c0,2.2-2.371,4.234-4.573,4.234H140.573c-2.2,0-4.573-2.032-4.573-4.234V188.4a4.9,4.9,0,0,1,4.573-4.4h38.444a4.9,4.9,0,0,1,4.573,4.4v23.54Z" transform="translate(-130.919 -168.758)" fill="#112827"/>
    <path id="Path_331" data-name="Path 331" d="M197.258,285.677a4.313,4.313,0,0,1-3.726,3.726H163.726A4.313,4.313,0,0,1,160,285.677V267.556A4.142,4.142,0,0,1,163.726,264h29.637a4.142,4.142,0,0,1,3.726,3.556v18.121Z" transform="translate(-149.839 -231.823)" fill="#112827"/>
  </g>
  <path id="Path_332" data-name="Path 332" d="M141.081,154.085a2.6,2.6,0,0,1-2.54,2.54h0a2.6,2.6,0,0,1-2.54-2.54V144.94a2.6,2.6,0,0,1,2.54-2.54h0a2.6,2.6,0,0,1,2.54,2.54Z" transform="translate(-107.21 -112.255)" fill="#e8c018"/>
  <path id="Path_333" data-name="Path 333" d="M141.081,160v7.96a2.4,2.4,0,0,1-2.54,2.54h0a2.6,2.6,0,0,1-2.54-2.54" transform="translate(-107.21 -126.129)" fill="#d3ac07"/>
  <path id="Path_334" data-name="Path 334" d="M189.881,154.085a2.6,2.6,0,0,1-2.54,2.54h0a2.6,2.6,0,0,1-2.54-2.54V144.94a2.6,2.6,0,0,1,2.54-2.54h0a2.6,2.6,0,0,1,2.54,2.54Z" transform="translate(-145.679 -112.255)" fill="#e8c018"/>
  <path id="Path_335" data-name="Path 335" d="M189.881,160v7.96a2.4,2.4,0,0,1-2.54,2.54h0a2.6,2.6,0,0,1-2.54-2.54" transform="translate(-145.679 -126.129)" fill="#d3ac07"/>
  <path id="Path_336" data-name="Path 336" d="M241.081,152.485a2.6,2.6,0,0,1-2.54,2.54h0a2.6,2.6,0,0,1-2.54-2.54V143.34a2.6,2.6,0,0,1,2.54-2.54h0a2.6,2.6,0,0,1,2.54,2.54Z" transform="translate(-186.04 -110.994)" fill="#e8c018"/>
  <path id="Path_337" data-name="Path 337" d="M241.081,158.4v7.96a2.4,2.4,0,0,1-2.54,2.54h0a2.6,2.6,0,0,1-2.54-2.54" transform="translate(-186.04 -124.868)" fill="#d3ac07"/>
  <path id="Path_338" data-name="Path 338" d="M292.281,152.485a2.6,2.6,0,0,1-2.54,2.54h0a2.6,2.6,0,0,1-2.54-2.54V143.34a2.6,2.6,0,0,1,2.54-2.54h0a2.6,2.6,0,0,1,2.54,2.54Z" transform="translate(-226.402 -110.994)" fill="#e8c018"/>
  <path id="Path_339" data-name="Path 339" d="M292.281,158.4v7.96a2.4,2.4,0,0,1-2.54,2.54h0a2.6,2.6,0,0,1-2.54-2.54" transform="translate(-226.402 -124.868)" fill="#d3ac07"/>
  <path id="Path_340" data-name="Path 340" d="M341.081,152.485a2.6,2.6,0,0,1-2.54,2.54h0a2.6,2.6,0,0,1-2.54-2.54V143.34a2.6,2.6,0,0,1,2.54-2.54h0a2.6,2.6,0,0,1,2.54,2.54Z" transform="translate(-264.871 -110.994)" fill="#e8c018"/>
  <path id="Path_341" data-name="Path 341" d="M341.081,158.4v7.96a2.4,2.4,0,0,1-2.54,2.54h0a2.6,2.6,0,0,1-2.54-2.54" transform="translate(-264.871 -124.868)" fill="#d3ac07"/>
</svg>
