<svg xmlns="http://www.w3.org/2000/svg" width="120.195" height="105" viewBox="0 0 120.195 105">
  <g id="browser-certificate-ssl-svgrepo-com" transform="translate(-1 -3.04)">
    <path id="Path_310" data-name="Path 310" d="M112.379,96.86H9.816A8.6,8.6,0,0,1,1,88.488V11.412A8.6,8.6,0,0,1,9.816,3.04H112.379a8.6,8.6,0,0,1,8.816,8.372V88.488A8.6,8.6,0,0,1,112.379,96.86Z" transform="translate(0 0)" fill="#e7e3e6"/>
    <g id="Group_599" data-name="Group 599" transform="translate(41.414 31.633)">
      <path id="Path_311" data-name="Path 311" d="M21.861,18.538a1.331,1.331,0,0,0-.5,1.083,1.229,1.229,0,0,0,.608,1.074,11.231,11.231,0,0,0,2.81.939A7.9,7.9,0,0,1,28.2,23.26a4.012,4.012,0,0,1,1.217,3.162,4.17,4.17,0,0,1-1.559,3.372,6.212,6.212,0,0,1-4.1,1.294,9.492,9.492,0,0,1-6.614-2.719L19.2,25.847a7.316,7.316,0,0,0,4.623,2.189,2.422,2.422,0,0,0,1.493-.408,1.315,1.315,0,0,0,.542-1.105,1.287,1.287,0,0,0-.575-1.105A7.5,7.5,0,0,0,23,24.585a9.883,9.883,0,0,1-3.948-1.668,3.945,3.945,0,0,1-1.25-3.23,4,4,0,0,1,1.581-3.394,6.357,6.357,0,0,1,3.948-1.2,9.477,9.477,0,0,1,3.1.533,8.232,8.232,0,0,1,2.7,1.5l-1.747,2.521a6.807,6.807,0,0,0-4.158-1.526A2.071,2.071,0,0,0,21.861,18.538Z" transform="translate(-17.139 -15.097)" fill="#85bd57"/>
      <path id="Path_312" data-name="Path 312" d="M27.5,18.538a1.331,1.331,0,0,0-.5,1.083,1.229,1.229,0,0,0,.608,1.074,11.231,11.231,0,0,0,2.81.939,7.9,7.9,0,0,1,3.416,1.626,4.012,4.012,0,0,1,1.217,3.162,4.17,4.17,0,0,1-1.559,3.372,6.212,6.212,0,0,1-4.1,1.294,9.492,9.492,0,0,1-6.614-2.719l2.057-2.521a7.316,7.316,0,0,0,4.623,2.189,2.422,2.422,0,0,0,1.493-.408,1.315,1.315,0,0,0,.542-1.105,1.287,1.287,0,0,0-.575-1.105,7.5,7.5,0,0,0-2.278-.831,9.883,9.883,0,0,1-3.948-1.668,3.945,3.945,0,0,1-1.25-3.23,4,4,0,0,1,1.581-3.394,6.357,6.357,0,0,1,3.948-1.2,9.477,9.477,0,0,1,3.1.533,8.232,8.232,0,0,1,2.7,1.5l-1.747,2.521a6.807,6.807,0,0,0-4.158-1.526A2.071,2.071,0,0,0,27.5,18.538Z" transform="translate(-8.664 -15.097)" fill="#85bd57"/>
      <path id="Path_313" data-name="Path 313" d="M28.851,30.7V15.239H32.3V27.625h6.592V30.7H28.851Z" transform="translate(0.475 -14.884)" fill="#85bd57"/>
    </g>
    <path id="Path_314" data-name="Path 314" d="M121.2,20.634V11.856a8.816,8.816,0,0,0-8.816-8.816H9.816A8.816,8.816,0,0,0,1,11.856v8.778Z" transform="translate(0 0)" fill="#53b1e2"/>
    <path id="Path_315" data-name="Path 315" d="M36.037,16.644H4.451V9.834A3.063,3.063,0,0,1,7.514,6.771h25.46a3.063,3.063,0,0,1,3.063,3.063v6.81Z" transform="translate(5.19 5.612)" fill="#e7e3e6"/>
    <path id="Path_316" data-name="Path 316" d="M48.651,15.022H17.065V9.834a3.063,3.063,0,0,1,3.063-3.063h25.46a3.063,3.063,0,0,1,3.063,3.063v5.188Z" transform="translate(24.162 5.612)" fill="#d2d2d2"/>
    <circle id="Ellipse_89" data-name="Ellipse 89" cx="3.379" cy="3.379" r="3.379" transform="translate(96.356 9.214)" fill="#e7e3e6"/>
    <circle id="Ellipse_90" data-name="Ellipse 90" cx="3.379" cy="3.379" r="3.379" transform="translate(86.051 9.214)" fill="#e7e3e6"/>
    <g id="Group_600" data-name="Group 600" transform="translate(71.615 56.841)">
      <path id="Path_317" data-name="Path 317" d="M41.811,36.573l5.8,26.01-11.724-6.4V36.573Z" transform="translate(-19.149 -11.384)" fill="#656766"/>
      <path id="Path_318" data-name="Path 318" d="M37,36.573l-5.8,26.01,11.725-6.4V36.573Z" transform="translate(-26.191 -11.384)" fill="#4e4c4d"/>
      <path id="Path_319" data-name="Path 319" d="M60.214,49.169h0a8.359,8.359,0,0,1-8.359,8.359h0l-.015.015a8.359,8.359,0,0,1-11.821,0L40,57.527h0a8.359,8.359,0,0,1-8.359-8.359v-.023h0a8.348,8.348,0,0,1,0-11.806h0v-.033a8.348,8.348,0,0,1,8.348-8.348h.033a8.348,8.348,0,0,1,11.806,0h.022a8.359,8.359,0,0,1,8.359,8.359h0A8.379,8.379,0,0,1,60.214,49.169Z" transform="translate(-29.2 -26.514)" fill="#ec6e62"/>
      <circle id="Ellipse_91" data-name="Ellipse 91" cx="8.451" cy="8.451" r="8.451" transform="translate(8.283 8.288)" fill="#ffc966"/>
    </g>
    <g id="Group_601" data-name="Group 601" transform="translate(12.621 58.285)">
      <rect id="Rectangle_267" data-name="Rectangle 267" width="47.379" height="5.571" transform="translate(0)" fill="#d2d2d2"/>
      <rect id="Rectangle_268" data-name="Rectangle 268" width="47.379" height="5.571" transform="translate(0 10.812)" fill="#d2d2d2"/>
      <rect id="Rectangle_269" data-name="Rectangle 269" width="27.929" height="5.571" transform="translate(0 21.623)" fill="#d2d2d2"/>
    </g>
  </g>
</svg>
