<svg xmlns="http://www.w3.org/2000/svg" width="117.312" height="105" viewBox="0 0 117.312 105">
  <g id="website-svgrepo-com_1_" data-name="website-svgrepo-com (1)" transform="translate(0 -16)">
    <g id="Group_550" data-name="Group 550" transform="translate(0 16)">
      <path id="Path_284" data-name="Path 284" d="M111.813,16H5.5A5.385,5.385,0,0,0,0,21.25v94.5A5.385,5.385,0,0,0,5.5,121H111.813a5.385,5.385,0,0,0,5.5-5.25V21.25A5.385,5.385,0,0,0,111.813,16Z" transform="translate(0 -16)" fill="#fff"/>
    </g>
    <g id="Group_551" data-name="Group 551" transform="translate(0 16)">
      <path id="Path_285" data-name="Path 285" d="M111.813,16H5.5A5.385,5.385,0,0,0,0,21.25v94.5A5.385,5.385,0,0,0,5.5,121H111.813a5.385,5.385,0,0,0,5.5-5.25V21.25A5.385,5.385,0,0,0,111.813,16Zm1.833,99.75a1.793,1.793,0,0,1-1.833,1.75H5.5a1.793,1.793,0,0,1-1.833-1.75v-84A1.793,1.793,0,0,1,5.5,30H111.813a1.793,1.793,0,0,1,1.833,1.75Z" transform="translate(0 -16)" fill="#b9bbc1"/>
    </g>
    <g id="Group_553" data-name="Group 553" transform="translate(5.499 21.522)">
      <g id="Group_552" data-name="Group 552" transform="translate(0 0)">
        <path id="Path_286" data-name="Path 286" d="M25.833,43.743a1.893,1.893,0,0,1-1.3-.532,1.859,1.859,0,1,1,1.3.532Z" transform="translate(-24 -40.099)" fill="#ff4f19"/>
      </g>
    </g>
    <g id="Group_555" data-name="Group 555" transform="translate(10.998 21.522)">
      <g id="Group_554" data-name="Group 554" transform="translate(0 0)">
        <path id="Path_287" data-name="Path 287" d="M49.833,43.743a1.93,1.93,0,0,1-1.3-.532A1.891,1.891,0,0,1,48,41.91a1.841,1.841,0,1,1,1.833,1.833Z" transform="translate(-48 -40.099)" fill="#ffd200"/>
      </g>
    </g>
    <g id="Group_557" data-name="Group 557" transform="translate(16.497 21.522)">
      <g id="Group_556" data-name="Group 556" transform="translate(0 0)">
        <path id="Path_288" data-name="Path 288" d="M73.833,43.743A1.815,1.815,0,0,1,72,41.91a1.852,1.852,0,0,1,.532-1.3,1.918,1.918,0,0,1,2.6,0,1.859,1.859,0,0,1,.532,1.3,1.815,1.815,0,0,1-1.833,1.833Z" transform="translate(-72 -40.099)" fill="#00e68c"/>
      </g>
    </g>
    <g id="Group_559" data-name="Group 559" transform="translate(10.998 99.863)">
      <g id="Group_558" data-name="Group 558">
        <path id="Path_289" data-name="Path 289" d="M75.5,403.666H49.833a1.833,1.833,0,0,1,0-3.666H75.5a1.833,1.833,0,1,1,0,3.666Z" transform="translate(-48 -400)" fill="#5c546a"/>
      </g>
    </g>
    <g id="Group_561" data-name="Group 561" transform="translate(43.992 99.863)">
      <g id="Group_560" data-name="Group 560">
        <path id="Path_290" data-name="Path 290" d="M219.5,403.666H193.833a1.833,1.833,0,1,1,0-3.666H219.5a1.833,1.833,0,1,1,0,3.666Z" transform="translate(-192 -400)" fill="#5c546a"/>
      </g>
    </g>
    <g id="Group_563" data-name="Group 563" transform="translate(76.986 99.863)">
      <g id="Group_562" data-name="Group 562">
        <path id="Path_291" data-name="Path 291" d="M363.5,403.666H337.833a1.833,1.833,0,0,1,0-3.666H363.5a1.833,1.833,0,0,1,0,3.666Z" transform="translate(-336 -400)" fill="#5c546a"/>
      </g>
    </g>
    <g id="Group_565" data-name="Group 565" transform="translate(76.986 106.336)">
      <g id="Group_564" data-name="Group 564">
        <path id="Path_292" data-name="Path 292" d="M350.664,435.666H337.833a1.833,1.833,0,1,1,0-3.666h12.831a1.833,1.833,0,1,1,0,3.666Z" transform="translate(-336 -432)" fill="#b9bbc1"/>
      </g>
    </g>
    <g id="Group_567" data-name="Group 567" transform="translate(43.992 106.336)">
      <g id="Group_566" data-name="Group 566">
        <path id="Path_293" data-name="Path 293" d="M206.664,435.666H193.833a1.833,1.833,0,1,1,0-3.666h12.831a1.833,1.833,0,1,1,0,3.666Z" transform="translate(-192 -432)" fill="#b9bbc1"/>
      </g>
    </g>
    <g id="Group_569" data-name="Group 569" transform="translate(10.998 106.336)">
      <g id="Group_568" data-name="Group 568">
        <path id="Path_294" data-name="Path 294" d="M62.664,435.666H49.833a1.833,1.833,0,1,1,0-3.666H62.664a1.833,1.833,0,1,1,0,3.666Z" transform="translate(-48 -432)" fill="#b9bbc1"/>
      </g>
    </g>
    <g id="Group_571" data-name="Group 571" transform="translate(58.656 36.966)">
      <g id="Group_570" data-name="Group 570" transform="translate(0 0)">
        <path id="Path_295" data-name="Path 295" d="M274.33,115.666h-16.5a1.833,1.833,0,0,1,0-3.666h16.5a1.833,1.833,0,0,1,0,3.666Z" transform="translate(-256 -112)" fill="#ff4f19"/>
      </g>
    </g>
    <g id="Group_573" data-name="Group 573" transform="translate(58.656 43.954)">
      <g id="Group_572" data-name="Group 572" transform="translate(0 0)">
        <path id="Path_296" data-name="Path 296" d="M301.825,147.666H257.833a1.833,1.833,0,0,1,0-3.666h43.992a1.833,1.833,0,0,1,0,3.666Z" transform="translate(-256 -144)" fill="#e9001e"/>
      </g>
    </g>
    <g id="Group_575" data-name="Group 575" transform="translate(67.821 54.437)">
      <g id="Group_574" data-name="Group 574">
        <path id="Path_297" data-name="Path 297" d="M332.66,195.666H297.833a1.833,1.833,0,0,1,0-3.666H332.66a1.833,1.833,0,0,1,0,3.666Z" transform="translate(-296 -192)" fill="#b9bbc1"/>
      </g>
    </g>
    <g id="Group_577" data-name="Group 577" transform="translate(67.821 61.426)">
      <g id="Group_576" data-name="Group 576">
        <path id="Path_298" data-name="Path 298" d="M332.66,227.666H297.833a1.833,1.833,0,0,1,0-3.666H332.66a1.833,1.833,0,0,1,0,3.666Z" transform="translate(-296 -224)" fill="#b9bbc1"/>
      </g>
    </g>
    <g id="Group_579" data-name="Group 579" transform="translate(67.821 68.414)">
      <g id="Group_578" data-name="Group 578">
        <path id="Path_299" data-name="Path 299" d="M332.66,259.666H297.833a1.833,1.833,0,0,1,0-3.666H332.66a1.833,1.833,0,1,1,0,3.666Z" transform="translate(-296 -256)" fill="#b9bbc1"/>
      </g>
    </g>
    <g id="Group_581" data-name="Group 581" transform="translate(58.656 54.437)">
      <g id="Group_580" data-name="Group 580">
        <path id="Path_300" data-name="Path 300" d="M259.666,195.666h-1.833a1.833,1.833,0,0,1,0-3.666h1.833a1.833,1.833,0,0,1,0,3.666Z" transform="translate(-256 -192)" fill="#ffd200"/>
      </g>
    </g>
    <g id="Group_583" data-name="Group 583" transform="translate(58.656 61.426)">
      <g id="Group_582" data-name="Group 582">
        <path id="Path_301" data-name="Path 301" d="M259.666,227.666h-1.833a1.833,1.833,0,0,1,0-3.666h1.833a1.833,1.833,0,0,1,0,3.666Z" transform="translate(-256 -224)" fill="#ffd200"/>
      </g>
    </g>
    <g id="Group_585" data-name="Group 585" transform="translate(58.656 68.414)">
      <g id="Group_584" data-name="Group 584">
        <path id="Path_302" data-name="Path 302" d="M259.666,259.666h-1.833a1.833,1.833,0,0,1,0-3.666h1.833a1.833,1.833,0,1,1,0,3.666Z" transform="translate(-256 -256)" fill="#ffd200"/>
      </g>
    </g>
    <g id="Group_595" data-name="Group 595" transform="translate(10.998 36.492)">
      <g id="Group_587" data-name="Group 587" transform="translate(12.831 31.161)">
        <g id="Group_586" data-name="Group 586">
          <path id="Path_303" data-name="Path 303" d="M122.33,251.666h-16.5a1.833,1.833,0,1,1,0-3.666h16.5a1.833,1.833,0,1,1,0,3.666Z" transform="translate(-104 -248)" fill="#8b8996"/>
        </g>
      </g>
      <g id="Group_589" data-name="Group 589" transform="translate(10.998 21.995)">
        <g id="Group_588" data-name="Group 588">
          <path id="Path_304" data-name="Path 304" d="M97.83,220.828a1.833,1.833,0,0,1-1.57-2.777l5.5-9.165a1.833,1.833,0,1,1,3.143,1.887l-5.5,9.165A1.832,1.832,0,0,1,97.83,220.828Z" transform="translate(-95.999 -207.996)" fill="#8b8996"/>
        </g>
      </g>
      <g id="Group_590" data-name="Group 590" transform="translate(29.21 28.855)">
        <ellipse id="Ellipse_87" data-name="Ellipse 87" cx="3.548" cy="4.139" rx="3.548" ry="4.139" transform="translate(0 0)" fill="#5c546a"/>
      </g>
      <g id="Group_591" data-name="Group 591" transform="translate(9.106 28.855)">
        <ellipse id="Ellipse_88" data-name="Ellipse 88" cx="3.548" cy="4.139" rx="3.548" ry="4.139" transform="translate(0 0)" fill="#5c546a"/>
      </g>
      <g id="Group_593" data-name="Group 593" transform="translate(0 0)">
        <g id="Group_592" data-name="Group 592">
          <path id="Path_305" data-name="Path 305" d="M79.161,137.662H68.015a7.353,7.353,0,0,1-6.657-4.26l-9.033-17.736H49.833a1.833,1.833,0,0,1,0-3.666h2.494a5.555,5.555,0,0,1,2.814,1.023l1.3,2.643H84.66a1.832,1.832,0,0,1,1.833,1.833V130.33A7.339,7.339,0,0,1,79.161,137.662Z" transform="translate(-48 -112)" fill="#b9bbc1"/>
        </g>
      </g>
      <g id="Group_594" data-name="Group 594" transform="translate(0 0)">
        <path id="Path_306" data-name="Path 306" d="M53.5,115.666H49.833A1.833,1.833,0,0,1,48,113.833h0A1.833,1.833,0,0,1,49.833,112H53.5a1.833,1.833,0,0,1,1.833,1.833h0A1.833,1.833,0,0,1,53.5,115.666Z" transform="translate(-48 -112)" fill="#8b8996"/>
      </g>
    </g>
    <g id="Group_596" data-name="Group 596" transform="translate(10.998 78.402)">
      <path id="Path_307" data-name="Path 307" d="M75.5,304H49.833A1.833,1.833,0,0,0,48,305.833V320.5a1.833,1.833,0,0,0,1.833,1.833H75.5a1.833,1.833,0,0,0,1.833-1.833V305.833A1.833,1.833,0,0,0,75.5,304Z" transform="translate(-48 -304)" fill="#00e68c"/>
    </g>
    <g id="Group_597" data-name="Group 597" transform="translate(43.992 78.402)">
      <path id="Path_308" data-name="Path 308" d="M219.5,304H193.833A1.833,1.833,0,0,0,192,305.833V320.5a1.833,1.833,0,0,0,1.833,1.833H219.5a1.833,1.833,0,0,0,1.833-1.833V305.833A1.833,1.833,0,0,0,219.5,304Z" transform="translate(-192 -304)" fill="#ff4f19"/>
    </g>
    <g id="Group_598" data-name="Group 598" transform="translate(76.986 78.402)">
      <path id="Path_309" data-name="Path 309" d="M363.5,304H337.833A1.833,1.833,0,0,0,336,305.833V320.5a1.833,1.833,0,0,0,1.833,1.833H363.5a1.833,1.833,0,0,0,1.833-1.833V305.833A1.833,1.833,0,0,0,363.5,304Z" transform="translate(-336 -304)" fill="#00abff"/>
    </g>
  </g>
</svg>
